<svg width="159" height="159" viewBox="0 0 159 159" fill="none" xmlns="http://www.w3.org/2000/svg">
<rect width="159" height="159" rx="6" fill="#F7FBFD"/>
<path d="M79 122.771C107.719 122.771 131 120.899 131 118.589C131 116.279 107.719 114.406 79 114.406C50.2812 114.406 27 116.279 27 118.589C27 120.899 50.2812 122.771 79 122.771Z" fill="#C7B990"/>
<path d="M59.4553 116.523L51.2013 61.6602V116.523H48.9844V61.3165L40.7156 116.523H38.3398L48.6888 47.4206L48.9844 47.4649V45.2148H51.2013V47.4576L51.5042 47.4206L61.8791 116.523H59.4553Z" fill="#263238"/>
<path opacity="0.2" d="M59.4553 116.523L51.2013 61.6602V116.523H48.9844V61.3165L40.7156 116.523H38.3398L48.6888 47.4206L48.9844 47.4649V45.2148H51.2013V47.4576L51.5042 47.4206L61.8791 116.523H59.4553Z" fill="white"/>
<path d="M38.7305 55.0834H61.5714L59.7203 36H40.5778L38.7305 55.0834Z" fill="#C4D0A1"/>
<g opacity="0.4">
<path opacity="0.4" d="M38.7305 55.0834H61.5714L59.7203 36H40.5778L38.7305 55.0834Z" fill="white"/>
</g>
<path d="M120.696 71.3848H80.6337C79.7684 71.3848 78.9386 71.7285 78.3267 72.3403C77.7149 72.9522 77.3712 73.782 77.3712 74.6472L72.9375 102.901H119.536L123.969 74.6472C123.969 74.2179 123.885 73.7927 123.72 73.3962C123.555 72.9996 123.314 72.6395 123.01 72.3364C122.706 72.0333 122.345 71.7932 121.948 71.6299C121.551 71.4666 121.125 71.3833 120.696 71.3848Z" fill="#C4D0A1"/>
<path opacity="0.4" d="M120.696 71.3848H80.6337C79.7684 71.3848 78.9386 71.7285 78.3267 72.3403C77.7149 72.9522 77.3712 73.782 77.3712 74.6472L72.9375 102.901H119.536L123.969 74.6472C123.969 74.2179 123.885 73.7927 123.72 73.3962C123.555 72.9996 123.314 72.6395 123.01 72.3364C122.706 72.0333 122.345 71.7932 121.948 71.6299C121.551 71.4666 121.125 71.3833 120.696 71.3848Z" fill="#A5AF87"/>
<path opacity="0.2" d="M113.008 103.318H119.536L123.97 74.6472C123.97 74.2185 123.886 73.7939 123.721 73.3979C123.557 73.0018 123.317 72.642 123.013 72.339C122.71 72.036 122.35 71.7958 121.954 71.632C121.557 71.4683 121.133 71.3843 120.704 71.3848C119.839 71.3848 119.009 71.7285 118.397 72.3403C117.785 72.9521 117.442 73.782 117.442 74.6472L113.008 103.318Z" fill="black"/>
<path d="M73.0535 82.3096H57.5836H57.4211C56.3683 82.3115 55.3591 82.7306 54.6147 83.4751C53.8703 84.2195 53.4512 85.2286 53.4492 86.2814V116.523H76.8074V86.2814C76.8218 85.261 76.4377 84.2752 75.7367 83.5335C75.0357 82.7918 74.0731 82.3528 73.0535 82.3096Z" fill="#C4D0A1"/>
<path opacity="0.5" d="M73.0535 82.3096H57.5836H57.4211C56.3683 82.3115 55.3591 82.7306 54.6147 83.4751C53.8703 84.2195 53.4512 85.2286 53.4492 86.2814V116.523H76.8074V86.2814C76.8218 85.261 76.4377 84.2752 75.7367 83.5335C75.0357 82.7918 74.0731 82.3528 73.0535 82.3096Z" fill="#C4D0A1"/>
<path opacity="0.6" d="M57.4211 82.291C56.8982 82.292 56.3807 82.396 55.898 82.5971C55.4153 82.7982 54.9771 83.0925 54.6082 83.463C54.2393 83.8336 53.9471 84.2733 53.7482 84.7569C53.5494 85.2404 53.4478 85.7585 53.4492 86.2814V116.523H61.4114V86.2814C61.4129 85.7569 61.3107 85.2374 61.1106 84.7526C60.9106 84.2678 60.6168 83.8273 60.2459 83.4565C59.8751 83.0857 59.4346 82.7918 58.9498 82.5918C58.4651 82.3918 57.9455 82.2896 57.4211 82.291Z" fill="#7D8567"/>
<path d="M98.147 92.3223H64.0039V116.523H98.147V92.3223Z" fill="#C4D0A1"/>
<path opacity="0.4" d="M98.147 92.3223H64.0039V116.523H98.147V92.3223Z" fill="#C4D0A1"/>
<path d="M66.2285 89.8435H104.654V98.2343H66.2285C65.1153 98.2343 64.0477 97.7921 63.2606 97.005C62.4735 96.2178 62.0313 95.1503 62.0312 94.0371C62.0312 93.4859 62.1398 92.9401 62.3507 92.4309C62.5617 91.9216 62.8708 91.4589 63.2606 91.0692C63.6503 90.6794 64.113 90.3703 64.6223 90.1593C65.1315 89.9484 65.6773 89.8398 66.2285 89.8398V89.8435Z" fill="#C4D0A1"/>
<path opacity="0.6" d="M66.2285 89.8435H104.654V98.2343H66.2285C65.1153 98.2343 64.0477 97.7921 63.2606 97.005C62.4735 96.2178 62.0313 95.1503 62.0312 94.0371C62.0312 93.4859 62.1398 92.9401 62.3507 92.4309C62.5617 91.9216 62.8708 91.4589 63.2606 91.0692C63.6503 90.6794 64.113 90.3703 64.6223 90.1593C65.1315 89.9484 65.6773 89.8398 66.2285 89.8398V89.8435Z" fill="#7D8567"/>
<path d="M105.325 84.0523C104.704 83.7995 98.595 84.3478 98.0079 84.8923C97.3026 85.5424 90.0665 88.7172 90.0665 88.7172L84.7128 94.2324C87.132 94.6877 91.2365 93.8623 94.3804 91.9583C96.2452 90.8284 97.7832 89.4032 99.3927 88.1008C100.262 87.3951 100.942 86.8979 101.338 86.7348C102.552 86.2357 104.41 85.3692 105.856 84.5898C105.856 84.5872 105.944 84.3054 105.325 84.0523Z" fill="#CBA180"/>
<path d="M107.284 83.5093C107.548 83.1048 106.309 81.8259 104.666 81.7466C103.371 81.6824 102.798 81.9524 101.899 82.1367C100.999 82.3211 99.6316 81.8179 98.8618 81.7418C97.2578 81.5776 97.074 82.5773 97.223 83.0858C97.3721 83.5943 97.5706 84.1714 98.6717 84.4895C99.7728 84.8077 104.907 84.3927 107.284 83.5093Z" fill="#37474F"/>
<path d="M96.9775 85.5715C97.5787 86.4684 98.8206 86.1137 99.8687 85.8455C100.854 85.5946 104.43 84.3911 104.954 85.0724C105.922 84.6287 106.861 84.0195 107.285 83.5093C107.285 83.5093 106.957 82.5234 104.933 83.1481C103.61 83.5558 101.155 83.8811 100.392 83.8363C99.3871 83.7751 97.9783 82.9585 96.9675 83.4394C96.5622 84.0865 96.7829 84.6781 96.9775 85.5715Z" fill="#6E755A"/>
<path opacity="0.6" d="M96.9775 85.5715C97.5787 86.4684 98.8206 86.1137 99.8687 85.8455C100.854 85.5946 104.43 84.3911 104.954 85.0724C105.922 84.6287 106.861 84.0195 107.285 83.5093C107.285 83.5093 106.957 82.5234 104.933 83.1481C103.61 83.5558 101.155 83.8811 100.392 83.8363C99.3871 83.7751 97.9783 82.9585 96.9675 83.4394C96.5622 84.0865 96.7829 84.6781 96.9775 85.5715Z" fill="white"/>
<path d="M76.0315 87.042C76.1739 85.3464 77.6407 83.089 79.1328 81.4834C81.1007 79.3377 85.2743 75.7829 85.2743 75.7829L85.3814 76.1745L97.273 72.9497C98.1538 74.4876 99.2803 77.7258 99.4296 80.0457C99.5665 82.2097 99.4028 84.8282 95.7926 87.8852C93.6043 89.7368 92.7317 91.0164 91.0641 92.0302C89.2505 93.1303 86.8075 94.9024 84.0627 94.0879C82.4822 93.6221 81.4036 92.7368 81.2836 91.0074C80.9886 91.2146 79.1293 91.6748 77.8108 91.0278C76.5753 90.4339 75.8823 88.7992 76.0315 87.042Z" fill="#CBA180"/>
<path d="M80.4989 91.2485C80.7655 91.2082 81.0238 91.1255 81.2643 91.0036C81.5459 88.0641 84.3825 85.7121 88.3987 82.0212C88.0097 81.3999 87.6998 80.7325 87.4763 80.0344C87.6716 80.7285 87.1578 81.3825 87.4095 81.8766C86.5237 82.7799 84.0585 84.5374 82.6602 86.3655C81.736 87.5847 80.5053 89.1233 80.4989 91.2485Z" fill="#CBA180"/>
<path d="M89.4743 91.6789C90.9911 91.7237 93.8769 90.5266 95.5194 88.9061C96.0417 88.3871 97.3798 87.1178 98.0129 85.6223C98.1958 85.1964 93.0073 89.6706 93.0073 89.6706C93.0073 89.6706 91.1451 91.0925 89.4743 91.6789Z" fill="#CBA180"/>
<path d="M98.7806 74.5965L84.5878 76.3361C84.5878 76.3361 80.103 79.884 77.9124 82.9601C79.415 82.8593 80.9173 83.1603 82.2651 83.8322C84.0767 84.8013 84.6626 85.5398 84.6626 85.5398C86.2233 85.0169 87.9215 85.0833 89.4367 85.7266C92.6453 87.0722 93.0085 89.6654 93.0085 89.6654C93.0085 89.6654 97.5131 86.5571 98.5534 84.9482C100.379 82.1422 99.5454 76.7792 98.7806 74.5965Z" fill="#455A64"/>
<path d="M85.1412 80.2955C85.1412 80.2955 85.2356 81.7876 86.2606 82.6656L83.9699 84.9141C84.295 85.183 84.6603 85.5424 84.6603 85.5424C85.6518 84.4815 86.7122 83.4873 87.8346 82.5661C87.8346 82.5661 85.9459 81.8887 85.1412 80.2955Z" fill="#37474F"/>
<path d="M83.6339 73.8067C82.8389 75.3045 82.3836 76.085 80.5891 77.0245C77.7763 78.445 74.7522 79.4014 71.6341 79.8564C69.8531 80.1284 68.6462 80.0693 67.7336 79.625C65.5413 78.5578 64.884 75.7654 66.7058 75.9715C68.1616 76.1451 68.9137 76.1931 69.3279 76.0235C69.3279 76.0235 68.1332 74.7711 68.4038 74.2626C68.6744 73.7541 69.642 74.3967 70.5882 74.9531C71.195 75.3078 71.6453 75.792 72.0477 75.7293C74.4971 75.2344 78.4002 73.0726 78.4002 73.0726C78.4002 73.0726 80.7368 66.8876 81.8946 64.91C83.0524 62.9324 85.4187 62.6765 85.4187 62.6765L86.208 67.8909L83.6339 73.8067Z" fill="#CBA180"/>
<path d="M94.5194 62.1241C95.1668 62.4487 95.7429 62.899 96.2141 63.4489C96.6853 63.9987 97.0422 64.637 97.2638 65.3264C98.2624 68.5169 98.9653 72.7858 99.7487 78.9567C94.0861 81.8142 86.7205 81.6399 83.3231 77.4351C83.4232 76.3226 83.6748 75.229 84.071 74.1846C83.7216 71.8933 83.4555 70.5423 83.2219 68.2755C83.019 66.3282 82.7413 63.8677 85.2962 62.7738C87.8512 61.68 89.5225 61.7735 91.3791 61.8579C93.5142 61.9779 94.5194 62.1241 94.5194 62.1241Z" fill="#6E755A"/>
<path d="M81.811 51.3479C81.498 51.2825 81.179 51.2501 80.8593 51.2514C80.1778 51.268 79.5293 51.556 78.8425 51.9102C78.3768 52.1468 77.7726 52.6312 77.402 52.3147C77.2722 52.1904 77.178 52.0336 77.1293 51.8606C77.0805 51.6876 77.0789 51.5047 77.1246 51.3309C77.226 50.9025 77.4296 50.5051 77.718 50.1725C77.3538 50.1831 76.9929 50.2453 76.6461 50.3572C76.1232 50.4885 76.0904 49.7602 76.2186 49.4785C76.3512 49.1995 76.5375 48.9494 76.7671 48.7426C77.0717 48.4604 77.4393 48.255 77.8394 48.1436C77.6122 48.0418 77.4026 47.9044 77.2187 47.7366C77.1201 47.6412 77.0506 47.5198 77.0182 47.3864C76.9858 47.2531 76.9919 47.1133 77.0356 46.9833C77.078 46.8618 77.1464 46.751 77.2359 46.6587C77.3255 46.5663 77.4341 46.4946 77.5542 46.4485C77.7961 46.3616 78.0521 46.3211 78.309 46.329C79.4708 46.323 80.6101 46.649 81.5928 47.2688C82.095 47.5603 82.5416 47.9385 82.9118 48.3859C83.2822 48.8486 83.5752 49.3682 83.7794 49.9246C83.872 50.1891 83.9079 50.4701 83.8847 50.7493C83.8456 51.0512 83.6955 51.3277 83.4636 51.525C83.2354 51.6165 82.9825 51.626 82.7482 51.5516C82.4386 51.4862 82.1255 51.4077 81.811 51.3479Z" fill="#37474F"/>
<path d="M82.1564 47.3369C82.1564 47.3369 80.1351 46.7901 79.7643 47.3102C79.3935 47.8303 79.8118 50.0775 81.0116 49.6882C82.2114 49.2989 82.2484 48.0349 82.2484 48.0349C82.2484 48.0349 84.571 48.8097 84.7197 47.5493C84.8099 46.7919 84.4417 45.7581 83.7335 45.7312C82.8869 45.6997 82.1564 47.3369 82.1564 47.3369Z" fill="#6E755A"/>
<path d="M91.6075 60.5156C92.7188 58.8942 94.3483 57.657 94.7569 55.0044C95.2028 52.0173 93.985 49.4755 92.2104 49.2186C92.2104 49.2186 91.7945 47.136 89.011 46.4222C86.8161 45.8598 83.7107 46.6087 81.9404 48.0141C80.9821 48.7786 80.2023 49.6778 79.8309 50.8195C79.4441 52.01 79.4444 53.6116 79.9575 54.7531C80.3656 55.578 81.0487 56.2346 81.889 56.6097C82.7242 56.9768 83.6108 57.2137 84.5178 57.312C85.0779 57.3907 85.6421 57.4507 86.2023 57.5321C86.4962 57.5535 86.787 57.6054 87.07 57.6871C87.2595 57.7903 87.4373 57.9135 87.6006 58.0546L90.6548 60.1509C90.8985 60.3082 91.3787 60.5514 91.6075 60.5156Z" fill="#37474F"/>
<path d="M90.9113 55.6704C90.9351 55.6887 90.961 55.704 90.9885 55.716C91.4092 55.8992 91.2957 55.2397 91.5961 54.74C91.6803 54.6098 91.7934 54.5007 91.9265 54.4214C92.0597 54.342 92.2094 54.2944 92.364 54.2824C92.6099 54.2346 92.8644 54.2602 93.0957 54.3561C93.3271 54.452 93.5251 54.6139 93.6651 54.8216C94.1765 55.5595 93.9485 56.8675 92.9472 57.4142C92.693 57.5675 92.3995 57.643 92.1029 57.6316C91.8062 57.6202 91.5194 57.5222 91.2778 57.3498L91.7349 62.3089C90.9508 63.3438 89.9387 64.1839 88.7773 64.7642C86.3437 65.9301 85.5551 64.5483 86.4689 63.3325L86.2293 61.9373C85.5702 62.0534 84.897 62.0655 84.2342 61.9732C83.5703 61.8482 82.9522 61.5473 82.4442 61.102C81.9363 60.6567 81.5571 60.0832 81.3463 59.4414C81.0222 58.5163 81.1704 57.6251 81.0111 56.6604C80.9164 56.0874 80.7268 55.1884 80.6824 54.822C80.6431 54.4909 80.6451 54.1562 80.6884 53.8256C82.9472 52.8355 84.8699 53.755 87.5342 53.1722C87.5342 53.1722 87.5779 51.6369 88.2432 50.9866C88.2627 51.6957 88.4812 52.385 88.8737 52.9759C89.2871 53.5673 89.8573 54.0317 90.5202 54.3167C90.499 54.6851 90.566 55.0533 90.7157 55.3906C90.7584 55.4978 90.8254 55.5935 90.9113 55.6704Z" fill="#CBA180"/>
<path d="M89.4866 56.8519C89.5132 57.2726 89.0657 57.6302 88.512 57.652C87.9582 57.6737 87.4968 57.3496 87.4803 56.9204C87.4638 56.4912 87.9012 56.1421 88.4549 56.1204C89.0087 56.0986 89.4706 56.4306 89.4866 56.8519Z" fill="#AA6550"/>
<path d="M82.7796 57.6724C82.806 58.0904 82.3587 58.4507 81.805 58.4724C81.2512 58.4942 80.7897 58.1675 80.7733 57.7409C80.7569 57.3143 81.1914 56.9601 81.7479 56.9408C82.3045 56.9216 82.7636 57.2511 82.7796 57.6724Z" fill="#AA6550"/>
<path d="M86.434 54.1256L87.8994 54.45C87.9362 54.2509 87.8958 54.0454 87.7863 53.8751C87.6769 53.7049 87.5066 53.5828 87.3102 53.5337C87.2136 53.5128 87.1138 53.5116 87.0168 53.5303C86.9198 53.549 86.8275 53.5871 86.7456 53.6424C86.6637 53.6978 86.5939 53.7691 86.5404 53.8521C86.4868 53.9352 86.4506 54.0282 86.434 54.1256Z" fill="#263238"/>
<path d="M87.6939 55.3136C87.7125 55.4337 87.6951 55.5566 87.6439 55.6668C87.5927 55.777 87.51 55.8696 87.4062 55.9328C87.3024 55.9961 87.1823 56.0272 87.0609 56.0222C86.9394 56.0172 86.8222 55.9763 86.724 55.9048C86.6258 55.8332 86.551 55.7342 86.509 55.6201C86.467 55.5061 86.4598 55.3822 86.4882 55.264C86.5166 55.1458 86.5793 55.0388 86.6686 54.9562C86.7578 54.8737 86.8694 54.8195 86.9894 54.8004C87.1509 54.7754 87.3156 54.8154 87.4476 54.9115C87.5796 55.0077 87.6682 55.1523 87.6939 55.3136Z" fill="#263238"/>
<path d="M83.1353 55.9364C83.1539 56.0565 83.1365 56.1794 83.0853 56.2896C83.0341 56.3998 82.9514 56.4924 82.8476 56.5556C82.7438 56.6189 82.6237 56.65 82.5023 56.645C82.3808 56.64 82.2636 56.5991 82.1654 56.5276C82.0672 56.456 81.9924 56.357 81.9504 56.2429C81.9084 56.1289 81.9012 56.005 81.9296 55.8868C81.958 55.7687 82.0207 55.6616 82.11 55.5791C82.1992 55.4966 82.3108 55.4423 82.4308 55.4232C82.5921 55.3989 82.7565 55.4392 82.8884 55.5352C83.0202 55.6313 83.1089 55.7754 83.1353 55.9364Z" fill="#263238"/>
<path d="M81.5157 55.292L82.8495 54.5861C82.808 54.4968 82.7486 54.4168 82.6751 54.3512C82.6016 54.2856 82.5155 54.2357 82.422 54.2046C82.3285 54.1734 82.2296 54.1617 82.1315 54.1701C82.0333 54.1785 81.9379 54.2069 81.851 54.2535C81.6732 54.3512 81.5395 54.5131 81.4771 54.7061C81.4148 54.8992 81.4285 55.1088 81.5157 55.292Z" fill="#263238"/>
<path d="M84.8592 55.639L85.1318 58.0175L83.5004 57.8392L84.8592 55.639Z" fill="#AA6550"/>
<path d="M86.2212 61.9381C87.478 61.6514 88.3775 61.4272 89.6764 60.2534C90.2081 59.7274 90.5754 59.0583 90.7339 58.3273C90.7339 58.3273 90.6964 59.7932 90.2363 60.4969C89.0246 62.3372 86.351 62.647 86.351 62.647L86.2212 61.9381Z" fill="#AA6550"/>
<path d="M87.2344 59.5039C87.2344 59.5039 87.26 59.5051 87.2344 59.5039V59.5039Z" fill="#B16668"/>
<path d="M93.0502 50.05C93.3612 50.1262 93.663 50.2363 93.9501 50.3782C94.5568 50.6904 95.0159 51.2298 95.4798 51.8459C95.7956 52.2615 96.1293 52.9602 96.6049 52.8371C96.7756 52.7813 96.9282 52.6809 97.0472 52.5464C97.1661 52.4119 97.247 52.2481 97.2816 52.0719C97.3804 51.6422 97.3713 51.1948 97.255 50.7695C97.5783 50.9383 97.8762 51.152 98.1398 51.4041C98.5575 51.7522 98.8993 51.109 98.8984 50.801C98.9026 50.4916 98.8444 50.1845 98.7271 49.8981C98.5785 49.5079 98.3388 49.1588 98.028 48.8799C98.2766 48.889 98.525 48.8562 98.7629 48.783C98.8935 48.741 99.0095 48.6625 99.0969 48.5567C99.1844 48.4509 99.2397 48.3223 99.2563 48.1861C99.2725 48.0582 99.2599 47.9283 99.2196 47.8059C99.1792 47.6834 99.112 47.5716 99.023 47.4784C98.845 47.2937 98.6326 47.1456 98.3978 47.0425C97.3547 46.5312 96.1872 46.3286 95.0328 46.4585C94.4539 46.4996 93.8872 46.6453 93.3602 46.8883C92.8211 47.145 92.3278 47.4885 91.8999 47.905C91.702 48.1031 91.547 48.3398 91.4445 48.6004C91.3483 48.8894 91.3635 49.2038 91.487 49.4822C91.6523 49.6645 91.8758 49.7837 92.1192 49.8194C92.4272 49.9008 92.7421 49.9659 93.0502 50.05Z" fill="#37474F"/>
<path d="M92.4738 49.0965C92.4738 49.0965 93.2088 51.058 93.8402 51.0473C94.4717 51.0366 95.5974 49.0557 95.043 48.6472C94.0289 47.8986 92.6961 48.7478 92.6961 48.7478C92.6961 48.7478 92.4239 46.6694 91.6258 46.6906C91.0684 46.6967 89.8596 48.1622 90.245 48.7541C90.7199 49.4598 92.4738 49.0965 92.4738 49.0965Z" fill="#6E755A"/>
<path d="M85.845 58.8304C85.585 58.924 85.3133 58.9814 85.0377 59.0009C84.9686 58.9945 84.899 59.0046 84.8346 59.0304C84.7702 59.0562 84.7128 59.0969 84.6672 59.1492C84.585 59.2766 84.6311 59.4171 84.7511 59.5928C84.9362 59.7889 85.1755 59.9254 85.4385 59.9849C85.7015 60.0445 85.9762 60.0243 86.2277 59.927C86.4929 59.8551 86.724 59.6915 86.8799 59.4652C87.0359 59.2389 87.1064 58.9647 87.0792 58.6912C87.0718 58.5748 87.0257 58.3918 86.8744 58.3509C86.7231 58.31 86.6122 58.4047 86.4871 58.4843C86.2953 58.6369 86.0778 58.754 85.845 58.8304Z" fill="#B16668"/>
<path d="M85.7461 59.8566C85.7505 59.908 85.7591 59.959 85.7716 60.009C85.9263 60.0048 86.0795 59.9772 86.226 59.9272C86.4448 59.8653 86.6411 59.7417 86.7914 59.571C86.9418 59.4004 87.0397 59.1901 87.0735 58.9652C86.9319 58.8942 86.7741 58.8621 86.6161 58.8719C86.3703 58.8875 86.1406 58.9999 85.9775 59.1844C85.8145 59.369 85.7312 59.6107 85.7461 59.8566Z" fill="#AA6550"/>
<path d="M103.521 61.9092C105.178 60.2586 105.791 59.2504 106.023 57.2358C106.405 54.1106 106.399 50.9501 106.004 47.8266C105.774 46.0403 105.057 44.2344 104.377 43.4832C102.746 41.674 100.104 42.0962 100.817 43.7961C101.386 45.1466 101.888 46.1188 101.561 46.4051C101.433 46.5326 100.992 45.8063 100.532 45.5511C100.257 45.3959 99.7916 45.4359 99.7289 45.7454C100.196 46.2842 100.272 47.0735 101.09 48.0338C101.546 48.568 102.113 48.9651 102.163 49.371C102.368 51.86 101.405 56.5902 101.405 56.5902C99.7975 58.1933 98.0877 59.6908 96.2866 61.0733C95.6318 61.5556 94.3861 61.8495 93.7611 62.0457C93.0511 63.4187 93.35 65.583 94.3879 66.9171C95.5239 68.3752 97.0605 68.1452 97.2856 67.5041C97.2851 67.4962 100.785 64.6347 103.521 61.9092Z" fill="#CBA180"/>
<path d="M116.425 82.5479H100.955H100.792C99.7394 82.5498 98.7302 82.9689 97.9858 83.7133C97.2414 84.4578 96.8223 85.4669 96.8203 86.5197V116.761H120.178V86.5197C120.193 85.4993 119.809 84.5135 119.108 83.7718C118.407 83.0301 117.444 82.591 116.425 82.5479Z" fill="#C4D0A1"/>
<path opacity="0.5" d="M116.425 82.5479H100.955H100.792C99.7394 82.5498 98.7302 82.9689 97.9858 83.7133C97.2414 84.4578 96.8223 85.4669 96.8203 86.5197V116.761H120.178V86.5197C120.193 85.4993 119.809 84.5135 119.108 83.7718C118.407 83.0301 117.444 82.591 116.425 82.5479Z" fill="#C4D0A1"/>
<path opacity="0.6" d="M100.792 82.5479C100.269 82.5488 99.7518 82.6528 99.2691 82.854C98.7864 83.0551 98.3482 83.3493 97.9793 83.7199C97.6104 84.0905 97.3182 84.5301 97.1193 85.0137C96.9205 85.4973 96.8189 86.0153 96.8203 86.5382V116.78H104.783V86.5382C104.784 86.0138 104.682 85.4942 104.482 85.0094C104.282 84.5246 103.988 84.0842 103.617 83.7133C103.246 83.3425 102.806 83.0486 102.321 82.8486C101.836 82.6486 101.317 82.5464 100.792 82.5479Z" fill="#7D8567"/>
</svg>
